<svg xmlns="http://www.w3.org/2000/svg" width="726.669" height="792.773" viewBox="0 0 726.669 792.773">
  <g id="connect-svgrepo-com" transform="translate(-20.741)">
    <path id="SVGCleanerId_0" d="M241.47,427.648c3.952,4.334,7.815,8.478,11.665,12.48,3.8-3.99,7.7-8.133,11.639-12.468Z" transform="translate(131.012 253.827)" fill="#fa7b7a"/>
    <path id="SVGCleanerId_1" d="M241.014,375.409l12.532,9.612,12.111-10.173c-4.092-4.908-7.726-9.625-12.341-16.088C249.39,364.2,245.3,369.723,241.014,375.409Z" transform="translate(130.741 212.939)" fill="#fa7b7a"/>
    <path id="SVGCleanerId_2" d="M276.667,413.1c2.8-3.621,5.456-7.126,8.121-10.645-2.894-3.111-5.8-6.3-8.822-9.7Z" transform="translate(151.487 233.114)" fill="#fa7b7a"/>
    <path id="Path_207" data-name="Path 207" d="M715.973,502.5c-.242-.574-.242-.574-.51-1.173-1.262-2.741-1.262-2.741-2.448-5.507Q631.247,314.425,541.1,136.139c-1.517-2.983-2.728-5.393-5.431-10.67a.6.6,0,0,0-.115-.242c-9.829-19.416-14.342-28.2-20.219-39-10.823-19.645-21.825-34.981-35.122-47.539A139.865,139.865,0,0,0,392.267.026L377.963,0a139.9,139.9,0,0,0-91.355,40.017c-12.6,12.175-23.151,27.052-33.707,46.2-5.928,10.811-10.785,20.219-20.079,38.589-.548,1.071-.548,1.071-1.084,2.167-2.129,4.181-3.047,6.017-4.258,8.376Q167.495,253.889,110.35,375.77c-27.868,59.7-47.539,102.688-66.5,145.611-11.677,26.631-18.294,46.544-21.213,67.706A180.012,180.012,0,0,0,46.9,708.31a174.348,174.348,0,0,0,159.686,84.126C241.3,790.562,276.168,778.375,308.46,758c25.8-16.152,49.349-36.448,75.674-64.009-3.85-4-7.713-8.159-11.665-12.481l23.3.025c-3.952,4.334-7.84,8.465-11.639,12.468,23.8,25.025,45.448,44.1,68.892,59.675,31.935,21.4,66.164,34.816,100.725,38.143a174.713,174.713,0,0,0,115.258-28.633,178.9,178.9,0,0,0,78.351-150.978c-.242-22.781-5.189-46.009-14.138-69.236C728.772,531.4,724.871,522.325,715.973,502.5ZM384.3,597.96l-12.532-9.612c4.283-5.673,8.376-11.206,12.315-16.649-2.856-3.952-6.043-8.554-9.944-14.265-.676-.982-.676-.982-1.339-1.963-.408-.574-.408-.574-.829-1.16-14.138-21.137-25.6-41.381-34.561-61.613-8.567-19.492-13.921-37.123-16.076-54.155-1.836-15.782-.79-29.359,3.48-40.693a55.474,55.474,0,0,1,21.723-27.383c24.706-16.241,59.943-14.138,81.666,5,10.4,9.013,17.236,22.832,18.944,37.939,2.18,19.339-1.453,40.374-10.148,64.035-11.5,30.762-28.531,60.491-52.918,94.287,4.6,6.463,8.235,11.18,12.34,16.088Zm280.234,47.131v.038c0,24.375-23.151,45.754-44.887,58a97.281,97.281,0,0,1-64.137,11.078c-26.287-4.156-52-17.758-78.938-39.839-13.195-10.785-25.866-23.151-40.361-38.806-2.664,3.519-5.291,7.024-8.1,10.645l-.688-20.346c3.021,3.4,5.941,6.591,8.822,9.7,25.956-34.267,45.307-64.277,60.542-95.447,18.829-38.666,29.449-74.731,30.532-110.566.778-26.924-4.513-52.842-15.986-75.126-15.476-30.672-43.293-54.831-76.082-66.572a150.961,150.961,0,0,0-93.216-2.958c-29.347,8.452-55.57,26.376-73.469,50.675-15.617,20.958-24.974,46.978-27.128,74.144-2.856,33.962,4.181,69.274,19.339,106.653,16.458,40.043,39.979,78.44,71.238,119.044,2.881-3.162,5.737-6.361,8.465-9.612l-.28,20.142c-2.8-3.506-5.469-7.024-8.184-10.53A411.816,411.816,0,0,1,297.407,669.4c-26.822,23.125-52.281,37.837-78.4,43.574-23.011,5.265-47.22,2.46-67.349-7.9-24.031-12.175-42.5-35.211-49.451-61.536-5.227-19.046-4.334-40.157,2.256-59.93,3.863-11.576,7.815-20.92,17.006-41.458.382-.841.382-.841.778-1.734,1.67-3.748,2.766-6.183,3.875-8.707q80.009-177.629,169.285-354.455c1.288-2.5,2.282-4.513,4.551-9a4.972,4.972,0,0,1,.242-.446c10.619-21.06,15.553-30.647,21.838-42.2,8.427-15.247,15.821-25.191,24.8-32.113a60.621,60.621,0,0,1,76.248,1.351c9.587,8.1,16.93,18.778,26.733,37.4,14.074,26.937,26.313,51.261,48.775,96.4,1.976,4.041,1.976,4.041,4,8.082a9.647,9.647,0,0,1,.433.892q75.457,152.158,144.209,305.488c.612,1.428,1.122,2.537,2.282,5.176.433.994.433.994.867,1.951,8.618,19.53,11.6,28.4,14.661,39.392C670.091,607.917,664.533,627.422,664.533,645.091Z" transform="translate(0)" fill="#fa7b7a"/>
    <path id="Path_208" data-name="Path 208" d="M292.15,453.511c-.676-.982-.676-.982-1.338-1.963-.408-.574-.408-.574-.829-1.16-14.138-21.137-25.6-41.381-34.561-61.613-8.567-19.492-13.921-37.123-16.076-54.155-1.836-15.783-.79-29.36,3.48-40.693a55.474,55.474,0,0,1,21.723-27.383c24.706-16.241,59.943-14.138,81.666,5,10.4,9.013,17.236,22.832,18.944,37.939,1.9,16.968-.918,35.364-7.42,55.6C396.189,245.394,366.4,185.413,321.6,176.362a151.177,151.177,0,0,0-61.523,4.627c-29.347,8.452-55.57,26.376-73.469,50.675-15.617,20.958-24.974,46.978-27.128,74.144-2.856,33.962,4.182,69.274,19.339,106.653,16.407,39.851,39.8,78.1,70.83,118.47,17.032-17.695,34.472-39.01,52.1-63.614C299,463.442,295.911,459.005,292.15,453.511Z" transform="translate(81.976 103.923)" fill="#dd4b4b"/>
    <path id="Path_209" data-name="Path 209" d="M476.726,384.12v0Z" transform="translate(270.646 227.991)" fill="#fa7b7a"/>
    <path id="SVGCleanerId_3" d="M224.551,392.712c-2.728,3.251-5.584,6.451-8.465,9.612,2.715,3.506,5.38,7.024,8.185,10.53Z" transform="translate(115.945 233.091)" fill="#fa7b7a"/>
    <g id="Group_302" data-name="Group 302" transform="translate(372.482 681.475)">
      <path id="SVGCleanerId_0_1_" d="M241.47,427.648c3.952,4.334,7.815,8.478,11.665,12.48,3.8-3.99,7.7-8.133,11.639-12.468Z" transform="translate(-241.47 -427.648)" fill="#fa7b7a"/>
    </g>
    <g id="Group_303" data-name="Group 303" transform="translate(371.755 571.699)">
      <path id="SVGCleanerId_1_1_" d="M241.014,375.409l12.532,9.612,12.111-10.173c-4.092-4.908-7.726-9.625-12.341-16.088C249.39,364.2,245.3,369.723,241.014,375.409Z" transform="translate(-241.014 -358.76)" fill="#fa7b7a"/>
    </g>
    <g id="Group_304" data-name="Group 304" transform="translate(427.452 625.866)">
      <path id="SVGCleanerId_2_1_" d="M276.667,413.1c2.8-3.621,5.456-7.126,8.121-10.645-2.894-3.111-5.8-6.3-8.822-9.7Z" transform="translate(-275.966 -392.752)" fill="#fa7b7a"/>
    </g>
    <path id="Path_210" data-name="Path 210" d="M476.726,384.12v0Z" transform="translate(270.646 227.991)" fill="#fa7b7a"/>
    <g id="Group_305" data-name="Group 305" transform="translate(332.031 625.803)">
      <path id="SVGCleanerId_3_1_" d="M224.551,392.712c-2.728,3.251-5.584,6.451-8.465,9.612,2.715,3.506,5.38,7.024,8.185,10.53Z" transform="translate(-216.086 -392.712)" fill="#fa7b7a"/>
    </g>
    <path id="Path_211" data-name="Path 211" d="M323.828,380.491c12.672-25.765,20.525-61.485,20.525-100.954,0-78.67-31.17-101.145-69.644-101.145-38.5,0-69.7,22.475-69.7,101.145,0,38.079,7.356,72.589,19.275,98.149-6.336-15.91-10.543-30.723-12.366-45.027-1.836-15.782-.791-29.36,3.48-40.693a55.475,55.475,0,0,1,21.723-27.383c24.706-16.241,59.943-14.138,81.666,5,10.4,9.013,17.236,22.832,18.944,37.939,2.18,19.339-1.453,40.374-10.147,64.035C326.48,374.55,325.065,377.508,323.828,380.491Z" transform="translate(109.373 105.883)" fill="#ba3a3a"/>
    <path id="Path_212" data-name="Path 212" d="M634.606,651.086a177.338,177.338,0,0,0,4.551-42.261c-.242-22.781-5.189-46.009-14.138-69.236-4.462-11.524-8.35-20.6-17.261-40.425-.242-.574-.242-.574-.51-1.173-1.262-2.741-1.262-2.741-2.448-5.507Q523.032,311.088,432.889,132.8c-1.517-2.983-2.728-5.393-5.431-10.67a.6.6,0,0,0-.115-.242c-9.829-19.416-14.342-28.2-20.219-39C396.3,63.248,385.3,47.912,372,35.354A137.283,137.283,0,0,0,331.9,8.455c-4.436.28-14.979-4.283-20-2.358-34.93,13.424-70.448,52.638-108.833,136.547,4.016-7.8,7.177-13.819,10.76-20.4,8.427-15.247,15.821-25.191,24.8-32.113a60.621,60.621,0,0,1,76.248,1.351c9.587,8.1,16.93,18.778,26.733,37.4,14.074,26.937,26.313,51.261,48.775,96.4,1.976,4.041,1.976,4.041,4,8.082a9.671,9.671,0,0,1,.434.892q75.457,152.158,144.209,305.488c.612,1.428,1.122,2.537,2.282,5.176.434.994.434.994.867,1.951,8.618,19.53,11.6,28.4,14.661,39.392,5.048,18.307-.51,37.812-.51,55.481v.038c0,24.375-23.151,45.754-44.887,58a97.281,97.281,0,0,1-64.137,11.078,123.893,123.893,0,0,1-24.541-6.782c32.712,14.852,66.992,20.818,101.107,15.323C567.639,712.38,605.4,687.75,634.606,651.086Z" transform="translate(108.215 3.337)" fill="#dd4b4b"/>
    <path id="Path_213" data-name="Path 213" d="M429.285,125.7c-.535-1.058-1.122-2.193-1.835-3.557a.608.608,0,0,0-.115-.242c-9.829-19.416-14.342-28.2-20.219-39-10.823-19.645-21.825-34.981-35.122-47.539a137.29,137.29,0,0,0-40.106-26.9c-4.437.28-14.979-4.283-20-2.358-34.93,13.424-70.447,52.638-108.832,136.547,4.016-7.8,7.177-13.819,10.759-20.4,8.427-15.247,15.821-25.191,24.8-32.113a60.621,60.621,0,0,1,76.248,1.351c9.587,8.1,16.93,18.778,26.733,37.4,14.074,26.937,26.313,51.261,48.775,96.4,1.976,4.041,1.976,4.041,4,8.082a9.607,9.607,0,0,1,.433.892q21.7,43.771,42.8,87.607,1.969-29.6,2-60.555A867.836,867.836,0,0,0,429.285,125.7Z" transform="translate(108.21 3.342)" fill="#ba3a3a"/>
    <path id="Path_214" data-name="Path 214" d="M43.839,424.093C32.161,450.724,25.545,470.637,22.625,491.8A178.377,178.377,0,0,0,25.4,557.7c45.563,71.1,86.931,66.954,142.093,66.954a178.539,178.539,0,0,0,69.223-14.291A132.092,132.092,0,0,1,219,615.7c-23.011,5.265-47.22,2.46-67.349-7.9-24.031-12.175-42.5-35.211-49.451-61.536-5.227-19.046-4.334-40.157,2.256-59.93,3.863-11.575,7.815-20.92,17.006-41.457.382-.842.382-.842.778-1.734,1.67-3.748,2.766-6.183,3.875-8.707q61.02-135.483,127.5-270.519" transform="translate(0.016 97.289)" fill="#dd4b4b"/>
    <path id="Path_215" data-name="Path 215" d="M151.534,491.967c-24.031-12.175-42.5-35.211-49.451-61.536-5.227-19.046-4.334-40.157,2.256-59.93,1.313-3.9,2.639-7.572,4.156-11.46C89.68,394.1,66.286,414.9,40.93,414.9a48.67,48.67,0,0,1-19.964-4.474,187.411,187.411,0,0,0,4.334,31.45c45.563,71.1,81.768,76.758,136.9,76.758,24.311,0,58.834-6.986,74.4-24.107a132.126,132.126,0,0,1-17.72,5.342C195.873,505.136,171.664,502.331,151.534,491.967Z" transform="translate(0.133 213.105)" fill="#ba3a3a"/>
    <g id="Group_306" data-name="Group 306" transform="translate(326.18 635.874)">
      <path id="Path_216" data-name="Path 216" d="M341.811,437.532c-13.093-10.722-25.764-23.011-40.132-38.5h0c-5.048,7.152-23.572,24.617-30.111,31.871-8.363,9.293-15.272,18.089-23.546,26.427a435.508,435.508,0,0,0,55.124,49.247c10.467-5.9,20.436-13.144,28.544-22.157A114.79,114.79,0,0,0,353.922,447C349.83,444.021,345.942,440.91,341.811,437.532Z" transform="translate(-191.279 -399.032)" fill="#dd4b4b"/>
      <path id="Path_217" data-name="Path 217" d="M252.842,445.256c-12.952,12.251-25.433,23.1-37,32.189A399.868,399.868,0,0,0,252.842,445.256Z" transform="translate(-210.377 -371.596)" fill="#dd4b4b"/>
      <path id="Path_218" data-name="Path 218" d="M212.414,469.013c1.083-.791,2.193-1.632,3.289-2.461C214.568,467.432,213.5,468.184,212.414,469.013Z" transform="translate(-212.414 -358.956)" fill="#dd4b4b"/>
    </g>
    <path id="Path_219" data-name="Path 219" d="M523.052,360.616c-.243-.574-.243-.574-.51-1.173-1.262-2.741-1.262-2.741-2.448-5.507Q494.107,296.32,467.2,239.048c4.36,35.466,42.375,110.26,39.482,175.2-3.787,85.363-37.123,125.431-73.634,143.3-1.874,1.288-3.787,2.537-5.775,3.672a98.038,98.038,0,0,1-64.4,11.079,113.606,113.606,0,0,1-13.424-3.047c-1.288-.191-2.512-.383-3.672-.586,30.4,12.468,61.944,17.249,93.458,12.175,43.778-7.037,81.475-31.654,110.681-68.318a177.325,177.325,0,0,0,4.551-42.26c-.243-22.782-5.189-46.009-14.138-69.236C535.851,389.516,531.95,380.439,523.052,360.616Z" transform="translate(192.921 141.885)" fill="#ba3a3a"/>
  </g>
</svg>
