<svg xmlns="http://www.w3.org/2000/svg" width="17.295" height="17.456" viewBox="0 0 17.295 17.456">
  <path id="list-check-svgrepo-com" d="M17.336,8.566H7.7a.709.709,0,1,0,0,1.418h9.64a.709.709,0,1,0,0-1.418ZM7.7,3.746h9.64a.709.709,0,1,0,0-1.418H7.7a.709.709,0,0,0,0,1.418ZM3.727,13.1H2.593A1.845,1.845,0,0,0,.75,14.945v1.134a1.845,1.845,0,0,0,1.843,1.843H3.727A1.845,1.845,0,0,0,5.57,16.079V14.945A1.845,1.845,0,0,0,3.727,13.1Zm.425,2.977a.425.425,0,0,1-.425.425H2.593a.425.425,0,0,1-.425-.425V14.945a.425.425,0,0,1,.425-.425H3.727a.425.425,0,0,1,.425.425h0ZM17.336,14.8H7.7a.709.709,0,1,0,0,1.418h9.64a.709.709,0,1,0,0-1.418ZM5.472,6.937l-2.9,3.174L1.958,9.5a.709.709,0,1,0-1,1.005l1.134,1.127.012.009.009.012a.656.656,0,0,0,.139.087l0,0a.635.635,0,0,0,.073.045l0,0a.681.681,0,0,0,.259.05.69.69,0,0,0,.278-.058l0,0a.69.69,0,0,0,.079-.053h0a.69.69,0,0,0,.152-.1h0L3.1,11.62l.011-.008,3.4-3.719a.709.709,0,1,0-1.045-.957h0ZM5.472.7l-2.9,3.174-.61-.606a.709.709,0,0,0-1,1.005h0L2.093,5.4l.012.009.009.012A.679.679,0,0,0,2.25,5.5l0,0a.7.7,0,0,0,.076.048l0,0a.68.68,0,0,0,.259.05.69.69,0,0,0,.278-.058l0,0A.69.69,0,0,0,2.946,5.5h0A.69.69,0,0,0,3.1,5.4h0L3.1,5.383l.011-.008,3.4-3.719A.709.709,0,1,0,5.473.7h0Z" transform="translate(-0.75 -0.466)"/>
</svg>
