<svg xmlns="http://www.w3.org/2000/svg" width="20" height="20" viewBox="0 0 20 20">
  <g id="logout-svgrepo-com" transform="translate(-2 -2)">
    <path id="Path_16" data-name="Path 16" d="M5.077,5.926A2.8,2.8,0,0,1,7.9,3.143H12a.759.759,0,1,1,0,1.518H7.9A1.274,1.274,0,0,0,6.615,5.926V6.939a.769.769,0,0,1-1.538,0ZM5.846,16.3a.764.764,0,0,1,.769.759v1.012A1.274,1.274,0,0,0,7.9,19.339H12a.759.759,0,1,1,0,1.518H7.9a2.8,2.8,0,0,1-2.821-2.784V17.061A.764.764,0,0,1,5.846,16.3Z" fill-rule="evenodd"/>
    <path id="Path_17" data-name="Path 17" d="M12.769,4.786A1.28,1.28,0,0,1,14.5,3.6l5.128,1.875a1.266,1.266,0,0,1,.837,1.187V17.339a1.266,1.266,0,0,1-.837,1.187L14.5,20.4a1.28,1.28,0,0,1-1.727-1.187Zm2.262-2.61a2.816,2.816,0,0,0-3.8,2.61V19.214a2.816,2.816,0,0,0,3.8,2.61l5.128-1.875A2.785,2.785,0,0,0,22,17.339V6.661a2.785,2.785,0,0,0-1.841-2.61Z" fill-rule="evenodd"/>
    <path id="Path_18" data-name="Path 18" d="M5.364,9.439a.776.776,0,0,0-1.088,0L2.225,11.463a.752.752,0,0,0,0,1.074l2.051,2.024a.776.776,0,0,0,1.088,0,.752.752,0,0,0,0-1.074l-.738-.729h4.3a.759.759,0,1,0,0-1.518h-4.3l.738-.729A.752.752,0,0,0,5.364,9.439Z" fill-rule="evenodd"/>
  </g>
</svg>
