<svg xmlns="http://www.w3.org/2000/svg" width="31.264" height="31.263" viewBox="0 0 31.264 31.263">
  <g id="settings-svgrepo-com" transform="translate(1 1)">
    <path id="Path_19" data-name="Path 19" d="M28.027,16.843l-1.918.012a11.667,11.667,0,0,1-1.715,4.212l1.362,1.35a1.244,1.244,0,0,1,.012,1.757L24.3,25.661a1.244,1.244,0,0,1-1.757.012l-1.362-1.35a11.6,11.6,0,0,1-4.194,1.762L17,28a1.242,1.242,0,0,1-1.237,1.249l-2.091.012a1.242,1.242,0,0,1-1.249-1.237l-.012-1.918A11.667,11.667,0,0,1,8.2,24.394l-1.35,1.362a1.244,1.244,0,0,1-1.757.012L3.6,24.3a1.244,1.244,0,0,1-.012-1.757l1.35-1.362a11.6,11.6,0,0,1-1.762-4.194L1.261,17A1.242,1.242,0,0,1,.012,15.761L0,13.67a1.242,1.242,0,0,1,1.237-1.249l1.918-.012A11.667,11.667,0,0,1,4.869,8.2L3.507,6.847A1.244,1.244,0,0,1,3.5,5.091L4.965,3.6a1.244,1.244,0,0,1,1.757-.012l1.362,1.35a11.6,11.6,0,0,1,4.194-1.762l-.012-1.918A1.242,1.242,0,0,1,13.5.012L15.594,0a1.242,1.242,0,0,1,1.249,1.237l.018,1.918A11.582,11.582,0,0,1,21.072,4.87l1.35-1.362A1.244,1.244,0,0,1,24.179,3.5l1.482,1.47a1.244,1.244,0,0,1,.012,1.757l-1.35,1.362a11.6,11.6,0,0,1,1.762,4.194L28,12.266A1.242,1.242,0,0,1,29.252,13.5l.012,2.091A1.246,1.246,0,0,1,28.027,16.843Zm-9.476-6.172a5.564,5.564,0,1,0,.042,7.868A5.56,5.56,0,0,0,18.551,10.671Z" transform="translate(0 0)" fill="none" stroke="#f90" stroke-width="2"/>
  </g>
</svg>
