<svg xmlns="http://www.w3.org/2000/svg" width="98.296" height="97.492" viewBox="0 0 98.296 97.492">
  <g id="_x30_6_phone_talking" transform="translate(0.145 -0.143)">
    <g id="Group_22" data-name="Group 22" transform="translate(0.998 1.219)">
      <g id="Group_21" data-name="Group 21" transform="translate(0 0)">
        <path id="Path_11" data-name="Path 11" d="M37.629,18.062h-.092a1.511,1.511,0,0,0-1.5,1.55,1.59,1.59,0,0,0,1.6,1.55,1.55,1.55,0,1,0,0-3.1Z" transform="translate(18.261 8.04)" fill="none" stroke="#f90" stroke-width="2"/>
        <path id="Path_12" data-name="Path 12" d="M45.744,18.062h-.086a1.514,1.514,0,0,0-1.507,1.55,1.587,1.587,0,0,0,1.593,1.55,1.55,1.55,0,0,0,0-3.1Z" transform="translate(22.724 8.04)" fill="none" stroke="#f90" stroke-width="2"/>
        <path id="Path_13" data-name="Path 13" d="M53.864,18.062h-.092a1.511,1.511,0,0,0-1.5,1.55,1.59,1.59,0,0,0,1.6,1.55,1.55,1.55,0,0,0,0-3.1Z" transform="translate(27.186 8.04)" fill="none" stroke="#f90" stroke-width="2"/>
        <path id="Path_14" data-name="Path 14" d="M69.491,64.742c-7.979-4.5-10.369-4.132-16.454-.692-3.122,2.075-6.881.81-13.415-4.511-1.283-1.045-2.571-2.21-3.826-3.459s-2.418-2.548-3.463-3.831c-4.925-6.044-6.266-11.559-4.667-13.222,4.714-5.069,3.644-9.232-.517-16.609-2.506-4.741-5.258-9.46-8.921-10.542-2.656-.78-6.6,1.264-7.774,2.043a22.17,22.17,0,0,0-7.487,9.289C.03,30.047.809,38.29,2.519,43.725c2.808,8.909,9.548,19.226,18.031,27.6,8.375,8.486,18.692,15.225,27.6,18.025a34.44,34.44,0,0,0,10.117,1.526,26.475,26.475,0,0,0,10.4-1.97,22.165,22.165,0,0,0,9.281-7.486c.781-1.171,2.832-5.114,2.043-7.781C78.914,69.98,74.2,67.228,69.491,64.742Zm-1.485,2.72c2.87,1.517,8.213,4.342,9.011,7.053a5.109,5.109,0,0,1-.4,2.605L55.648,66.134C59.592,63.951,61.189,63.617,68.006,67.462ZM17.353,14.848c2.716.8,5.541,6.147,7.078,9.055,4.062,7.2,4.049,9.474,1.437,12.488L14.558,15.319a7.4,7.4,0,0,1,2.323-.529A1.679,1.679,0,0,1,17.353,14.848Zm50.09,71.209c-6.071,2.609-13.686,1.812-18.364.335-8.449-2.657-18.292-9.107-26.329-17.253l-.015-.015C14.591,61.089,8.139,51.245,5.475,42.794,4,38.114,3.21,30.5,5.817,24.429a19.123,19.123,0,0,1,6-7.668L24.092,39.638c-.676,3.678,1.424,9.149,5.839,14.568,1.109,1.362,2.343,2.729,3.675,4.065s2.7,2.561,4.06,3.671c4.785,3.9,9.81,7.169,14.516,5.876L75.227,79.893A19.014,19.014,0,0,1,67.442,86.057Z" transform="translate(-0.998 4.543)" fill="none" stroke="#f90" stroke-width="2"/>
        <path id="Path_15" data-name="Path 15" d="M79.452,16.022A27.7,27.7,0,0,0,42.112,4.377h0a27.646,27.646,0,0,0-9.9,40.225l-4.186,7.175A1.55,1.55,0,0,0,29.5,54.1l12.01-1.062A27.659,27.659,0,0,0,79.452,16.022Zm-13.083,34.6a24.45,24.45,0,0,1-23.735-.5,1.549,1.549,0,0,0-.776-.209c-.045,0-.091,0-.136.006l-9.506.84L35.4,45.3a1.55,1.55,0,0,0-.1-1.706,25.087,25.087,0,0,1-2.09-3.313A24.594,24.594,0,0,1,43.552,7.122h0a24.559,24.559,0,0,1,22.817,43.5Z" transform="translate(13.465 -1.219)" fill="none" stroke="#f90" stroke-width="2"/>
      </g>
    </g>
  </g>
</svg>
